<?xml version="1.0" encoding="iso-8859-1"?>
<!-- Uploaded to: SVG Repo, www.svgrepo.com, Generator: SVG Repo Mixer Tools -->
<!DOCTYPE svg PUBLIC "-//W3C//DTD SVG 1.1//EN" "http://www.w3.org/Graphics/SVG/1.1/DTD/svg11.dtd">
<svg fill="#000000" height="800px" width="800px" version="1.1" id="Capa_1" xmlns="http://www.w3.org/2000/svg" xmlns:xlink="http://www.w3.org/1999/xlink" 
	 viewBox="0 0 489.418 489.418" xml:space="preserve">
<path d="M453.716,81.314H35.703C15.979,81.314,0,97.294,0,117.01v255.399c0,19.715,15.979,35.695,35.703,35.695h81.379l7.153-51.037
	c1.258-9.017,8.97-15.725,18.083-15.725h204.783c9.113,0,16.824,6.708,18.083,15.725l7.153,51.037h81.378
	c19.724,0,35.702-15.98,35.702-35.695V117.01C489.418,97.294,473.44,81.314,453.716,81.314z M334.42,243.322
	c-16.616,0-30.126-13.526-30.126-30.149c0-16.624,13.51-30.15,30.126-30.15c16.633,0,30.16,13.526,30.16,30.15
	C364.58,229.796,351.053,243.322,334.42,243.322z M154.967,243.322c-16.617,0-30.127-13.526-30.127-30.149
	c0-16.624,13.51-30.15,30.127-30.15c16.633,0,30.159,13.526,30.159,30.15C185.126,229.796,171.6,243.322,154.967,243.322z
	 M69.893,280.595c-7.807,0-14.149-6.341-14.149-14.155V160.32c0-7.814,6.342-14.156,14.149-14.156h41.517
	c-21.921,14.297-36.499,38.945-36.499,67.008c0,28.374,14.929,53.195,37.265,67.422H69.893z M197.775,280.595
	c22.336-14.227,37.279-39.047,37.279-67.422c0-28.064-14.576-52.711-36.516-67.008h92.324c-21.921,14.297-36.5,38.945-36.5,67.008
	c0,28.374,14.93,53.195,37.265,67.422H197.775z M433.674,266.439c0,7.814-6.34,14.155-14.147,14.155h-42.297
	c22.335-14.227,37.279-39.047,37.279-67.422c0-28.064-14.577-52.711-36.517-67.008h41.534c7.808,0,14.147,6.341,14.147,14.156
	V266.439z"/>
</svg>